<?xml version="1.0" encoding="utf-8"?>
<!-- Generator: Adobe Illustrator 27.8.1, SVG Export Plug-In . SVG Version: 6.00 Build 0)  -->
<svg version="1.1" id="Layer_1" xmlns="http://www.w3.org/2000/svg" xmlns:xlink="http://www.w3.org/1999/xlink" x="0px" y="0px"
	 viewBox="0 0 64 64" style="enable-background:new 0 0 64 64;" xml:space="preserve">
<style type="text/css">
	.st0{clip-path:url(#SVGID_00000181084237238356782850000011515484901536763285_);}
	.st1{clip-path:url(#SVGID_00000180361585229127768630000003334972633063412665_);}
	.st2{clip-path:url(#SVGID_00000143601750512639761270000007903659951524564396_);}
	.st3{fill:#FF6555;}
</style>
<g>
	<defs>
		<rect id="SVGID_1_" width="64" height="64"/>
	</defs>
	<clipPath id="SVGID_00000126318911794069247630000000823541648806807216_">
		<use xlink:href="#SVGID_1_"  style="overflow:visible;"/>
	</clipPath>
	<g style="clip-path:url(#SVGID_00000126318911794069247630000000823541648806807216_);">
		<g>
			<defs>
				<rect id="SVGID_00000178202309788093933850000002760113261016954792_" width="64" height="64"/>
			</defs>
			<clipPath id="SVGID_00000148626610755796638970000002653103898864712634_">
				<use xlink:href="#SVGID_00000178202309788093933850000002760113261016954792_"  style="overflow:visible;"/>
			</clipPath>
			<g style="clip-path:url(#SVGID_00000148626610755796638970000002653103898864712634_);">
				<g>
					<defs>
						<rect id="SVGID_00000175300805540176696690000007386894148555258010_" x="-0.2" y="19.5" width="64" height="21.3"/>
					</defs>
					<clipPath id="SVGID_00000065754578321503618270000010568120385918879395_">
						<use xlink:href="#SVGID_00000175300805540176696690000007386894148555258010_"  style="overflow:visible;"/>
					</clipPath>
					<g style="clip-path:url(#SVGID_00000065754578321503618270000010568120385918879395_);">
						<path class="st3" d="M-0.2,35c0-0.1,0.1-0.1,0.1-0.2c2.3-3.4,4.7-6.8,7-10.3c0,0,0.1-0.1,0.1-0.2v8.8h5.3
							c-0.8,1.4-1.6,2.8-2.4,4.2c-0.5-0.1-0.9-0.2-1.4-0.3c-2.9-0.7-5.7-1.3-8.6-2C-0.2,35.1-0.2,35-0.2,35C-0.2,35-0.2,35-0.2,35
							L-0.2,35z"/>
						<path class="st3" d="M41.3,40.8c-0.4-0.2-0.6-0.5-0.6-0.9c0-0.3,0-0.7,0.1-1c0.1-0.4,0.3-0.6,0.7-0.6c0.1,0,0.1,0,0.2,0
							c0.4,0,0.7,0.2,0.8,0.6c0,0.4,0,0.8,0,1.3c0,0.3-0.3,0.6-0.6,0.6L41.3,40.8L41.3,40.8z M41.8,39.6c0-0.2,0-0.4,0-0.6
							c0-0.1-0.1-0.2-0.2-0.2c-0.1,0-0.2,0.1-0.2,0.2c0,0.4,0,0.8,0,1.1c0,0.1,0.1,0.2,0.2,0.2c0.1,0,0.2-0.1,0.2-0.2
							C41.8,39.9,41.8,39.8,41.8,39.6L41.8,39.6z"/>
						<path class="st3" d="M62.8,33.7c0.2,0.3,0.4,0.7,0.6,1c0.1,0.1,0.2,0.3,0.3,0.4v0.1c-0.2,0.3-0.4,0.6-0.6,0.9
							c-0.1,0-0.1,0-0.2,0c-0.3,0-0.6,0-0.9,0c0-0.3,0.1-0.6-0.3-0.8c0.1-0.1,0.2-0.2,0.3-0.3c0.1-0.4-0.1-0.7-0.6-0.8
							c-0.2,0-0.4,0-0.6,0C61,34,61,34,61.1,34C61.7,33.9,62.3,33.8,62.8,33.7z"/>
						<path class="st3" d="M49.5,40.8c-0.4-0.1-0.6-0.5-0.6-0.8c0-0.3,0-0.7,0-1c0.1-0.4,0.3-0.6,0.7-0.7c0.3,0,0.6,0,0.9,0
							c0,0.2,0,0.4-0.1,0.5c-0.1,0-0.3,0-0.4,0c-0.3,0-0.5,0.1-0.5,0.4c0,0.3,0,0.6,0,0.9c0,0.2,0.1,0.2,0.3,0.2v-0.8h0.7v1.3
							c-0.2,0-0.3,0.1-0.5-0.1c-0.1,0.1-0.2,0.1-0.3,0.2L49.5,40.8L49.5,40.8z"/>
						<path class="st3" d="M57.1,33.2c-0.1,0.2-0.3,0.4-0.4,0.7c-0.2,0.3-0.4,0.7-0.6,1c-0.1,0.1-0.1,0.2,0,0.3
							c0.3,0.5,0.6,1,0.9,1.5c0,0.1,0.1,0.1,0.1,0.2H57c-14,0-28,0-42,0c-0.1,0-0.2,0-0.3-0.2c-0.7-1.2-1.5-2.3-2.2-3.5
							c0,0-0.1-0.1-0.1-0.1L57.1,33.2L57.1,33.2z"/>
						<path class="st3" d="M22,24.6V26c-0.2,0-0.5,0-0.7,0c-0.3,0-0.6,0-1,0.1c-0.5,0.1-0.8,0.4-1,0.9c0,0.1,0,0.2,0,0.3
							c0,1.4,0,2.8,0,4.3v0.2h-2.3V25c0,0,0,0,0,0c-1.1,1.9-2.2,3.8-3.3,5.7c0,0,0,0,0,0c0-0.2,0-0.3,0-0.5c0-0.4,0-0.9-0.1-1.3
							c-0.1-0.8-0.5-1.2-1.3-1.6c0,0,0,0,0.1,0c0.7-0.3,1.1-0.8,1.2-1.6c0.1-0.6,0.1-1.3-0.1-1.9c-0.3-1-0.9-1.5-1.9-1.7
							c-0.4-0.1-0.9-0.1-1.4-0.1c-0.5,0-1,0-1.6,0c0-0.1,0.1-0.1,0.1-0.2c0.5-0.7,0.9-1.4,1.4-2.1c0.1-0.1,0.1-0.1,0.3-0.1
							c1.2,0.1,2.3,0.3,3.5,0.4c1.2,0.1,2.3,0.3,3.5,0.4c0.7,0.1,1.4,0.2,2.1,0.2c-0.8,1.4-1.6,2.7-2.4,4.1h2.1v0.7
							C20.1,24.9,21,24.6,22,24.6L22,24.6z"/>
						<path class="st3" d="M41.7,31.8v-0.2c0-1.6,0-3.1,0-4.7c0-0.6-0.2-0.9-0.8-0.9c-0.3,0-0.5,0-0.8,0.1c-0.4,0.1-0.6,0.4-0.6,0.8
							c0,1.6,0,3.2,0,4.8v0.2h-2.3c0-0.1,0-0.1,0-0.2c0-1.6,0-3.2,0-4.7c0-0.5-0.2-0.8-0.7-0.9c-0.3,0-0.6,0-0.8,0
							c-0.4,0.1-0.6,0.4-0.6,0.8c0,1.6,0,3.2,0,4.8c0,0.1,0,0.1,0,0.2h-2.2v-7h2.1v0.5c1.1-0.9,3.1-0.7,4.1,0.1
							c0.4-0.3,0.8-0.5,1.3-0.6c0.7-0.1,1.4-0.1,2.1,0.1c0.4,0.1,0.7,0.3,1,0.5c0.4,0.3,0.5,0.8,0.5,1.3c0,0.8,0,1.5,0,2.3
							c0,0.9,0,1.8,0,2.6c0,0.1,0,0.1,0,0.2L41.7,31.8L41.7,31.8z"/>
						<path class="st3" d="M53,31.8h-2.1v-0.6c-0.1,0-0.1,0.1-0.1,0.1c-0.4,0.4-1,0.6-1.6,0.6c-0.6,0-1.1,0-1.6-0.2
							c-1.3-0.5-1.6-1.5-1.3-2.4c0.1-0.5,0.5-0.8,0.9-1.1c0.6-0.3,1.2-0.5,1.9-0.5c0.5,0,1,0,1.5,0c0.1,0,0.1,0,0.2,0
							c0-0.4,0-0.8,0-1.2c0-0.3-0.2-0.4-0.5-0.5c-0.3-0.1-0.6-0.1-1,0c-0.4,0.1-0.7,0.4-0.7,0.8c-0.4,0-0.7,0-1.1,0
							c-0.4,0-0.7,0-1.1,0c0-0.4,0.1-0.7,0.4-1c0.4-0.5,1-0.7,1.6-0.9c1.1-0.3,2.1-0.3,3.2,0.1c0.7,0.2,1.3,0.7,1.5,1.4
							c0,0.2,0.1,0.3,0.1,0.5c0,1.6,0,3.2,0,4.8C53.1,31.7,53.1,31.7,53,31.8z M50.8,28.7c-0.3,0-0.6,0-0.9,0c-0.1,0-0.3,0-0.4,0
							c-0.2,0-0.4,0.1-0.6,0.2c-0.4,0.2-0.5,0.6-0.5,1c0,0.4,0.3,0.6,0.7,0.7c0.3,0.1,0.5,0.1,0.8,0c0.5-0.1,0.9-0.4,0.9-0.8
							C50.8,29.4,50.8,29.1,50.8,28.7z"/>
						<path class="st3" d="M58.1,31.8h-2.2v-7H58v0.5c0.3-0.3,0.7-0.4,1.1-0.5c0.8-0.2,1.6-0.1,2.3,0.1c0.8,0.3,1.2,0.8,1.2,1.7
							c0,0.7,0,1.5,0,2.2c0,0.9,0,1.9,0,2.8c0,0.1,0,0.1,0,0.2h-2.3v-0.2c0-1.6,0-3.1,0-4.7c0-0.6-0.2-0.8-0.8-0.9
							c-0.3,0-0.5,0-0.8,0c-0.4,0.1-0.6,0.4-0.6,0.8c0,1.6,0,3.2,0,4.7C58.1,31.6,58.1,31.7,58.1,31.8L58.1,31.8z"/>
						<path class="st3" d="M30.3,29.7c-0.1,1-0.7,1.6-1.6,1.9c-1.1,0.3-2.2,0.3-3.2,0.1c-1-0.3-1.7-0.9-1.9-2c-0.1-1-0.2-2.1,0-3.1
							c0.2-1,0.8-1.5,1.7-1.8c1-0.3,2.1-0.3,3.1,0c1.1,0.3,1.7,1,1.8,2.1c0.1,0.6,0.1,1.1,0.1,1.7h-4.6c0,0.5,0,1,0.2,1.4
							c0.1,0.2,0.2,0.3,0.4,0.4c0.4,0.1,0.7,0.2,1.1,0c0.4-0.1,0.6-0.4,0.6-0.8L30.3,29.7L30.3,29.7z M28.1,27.6
							c0-0.3,0-0.6-0.1-0.9c0-0.2-0.1-0.5-0.3-0.6c-0.4-0.3-1.1-0.3-1.5,0c-0.1,0.1-0.2,0.2-0.3,0.3c-0.2,0.4-0.1,0.8-0.2,1.2
							L28.1,27.6L28.1,27.6z"/>
						<path class="st3" d="M9.1,31.6v-3.6c0.5,0,1,0,1.5,0.1c0.5,0.1,0.9,0.4,1,1c0.1,0.5,0.1,1,0,1.6c-0.1,0.5-0.4,0.8-1,0.9
							C10.1,31.6,9.6,31.6,9.1,31.6L9.1,31.6z"/>
						<path class="st3" d="M9.1,26.6v-3.1c0.6,0,1.2-0.1,1.7,0.1c0.4,0.1,0.6,0.4,0.7,0.7c0.1,0.4,0.1,0.8,0,1.2
							c-0.1,0.6-0.5,0.9-1.2,1C10,26.6,9.6,26.6,9.1,26.6L9.1,26.6z"/>
						<path class="st3" d="M62.8,33.7c-0.6,0.1-1.2,0.2-1.7,0.3c-0.1,0-0.1,0-0.2,0.1c-0.8,0-1.5,0-2.3,0v0.3c0.1,0,0.2,0,0.4,0
							c0.2,0,0.2,0.1,0.2,0.2c-0.2,0.1-0.3,0.1-0.5,0.2c-0.5,0.2-1,0.5-1.5,0.7c-0.1-0.1-0.1-0.2-0.2-0.3c0,0,0-0.1,0-0.2
							c0.3-0.6,0.7-1.1,1-1.7c0.1-0.1,0.1-0.1,0.2-0.1c1.4,0,2.7,0,4.1,0c0.1,0,0.2,0,0.2,0.1C62.7,33.5,62.8,33.6,62.8,33.7
							L62.8,33.7z"/>
						<path class="st3" d="M39.8,38.4h0.7c-0.1,0.8-0.3,1.6-0.4,2.4h-0.8c-0.1-0.4-0.2-0.8-0.2-1.2C39,40,39,40.4,38.9,40.8h-0.8
							c-0.1-0.8-0.3-1.6-0.4-2.4h0.7c0.1,0.5,0.1,0.9,0.2,1.4c0,0,0,0,0,0c0.1-0.4,0.2-0.9,0.3-1.3h0.4c0.1,0.4,0.2,0.9,0.3,1.3
							c0,0,0,0,0,0C39.7,39.3,39.8,38.8,39.8,38.4L39.8,38.4z"/>
						<path class="st3" d="M62,35.9c0.3,0,0.6,0,0.9,0c0.1,0,0.1,0,0.2,0c-0.2,0.3-0.4,0.6-0.6,0.9c0,0-0.1,0.1-0.1,0.1
							c-1.4,0-2.8,0-4.2,0c-0.1,0-0.1,0-0.2-0.1c-0.2-0.3-0.3-0.6-0.5-0.8c0.5,0,1.1,0,1.6,0c0,0.1,0,0.2,0,0.2h0.5
							c0-0.1,0-0.2,0-0.3c0.2,0,0.3,0,0.5,0c0,0.1,0,0.2,0,0.3c0.4,0,0.7,0,1.1,0C61.7,36.3,61.9,36.2,62,35.9L62,35.9z"/>
						<path class="st3" d="M47.2,39.6v1.2h-0.7v-2.4c0.2,0,0.5,0,0.7,0c0,0,0.1,0.1,0.1,0.1c0.2,0.4,0.3,0.8,0.5,1.2v-1.3h0.7v2.4
							c-0.2,0-0.5,0-0.7,0c0,0-0.1-0.1-0.1-0.1C47.5,40.3,47.4,39.9,47.2,39.6C47.2,39.6,47.2,39.6,47.2,39.6L47.2,39.6z M47.2,39.5
							L47.2,39.5C47.2,39.5,47.2,39.5,47.2,39.5C47.2,39.5,47.2,39.5,47.2,39.5C47.2,39.5,47.2,39.5,47.2,39.5z"/>
						<path class="st3" d="M43.6,39.5v1.3h-0.7v-2.4c0.2,0,0.5,0,0.7,0c0,0,0.1,0.1,0.1,0.1c0.2,0.4,0.3,0.8,0.5,1.2v-1.3h0.7v2.4
							c-0.2,0-0.5,0-0.7,0c0,0-0.1-0.1-0.1-0.1c-0.1-0.3-0.3-0.7-0.4-1C43.6,39.6,43.6,39.6,43.6,39.5L43.6,39.5z"/>
						<path class="st3" d="M51,40.8v-2.4c0.4,0,0.7,0,1.1,0c0.3,0,0.5,0.2,0.6,0.4c0.1,0.3,0.1,0.5-0.3,0.7c0.4,0.2,0.4,0.4,0.3,0.8
							c0,0.3-0.3,0.5-0.6,0.5C51.8,40.8,51.4,40.8,51,40.8L51,40.8z M51.7,39.8v0.6c0.1,0,0.3,0,0.4-0.1c0.1-0.1,0.1-0.3,0-0.3
							C52,39.8,51.9,39.8,51.7,39.8L51.7,39.8z M51.7,39.4c0.1,0,0.3-0.1,0.3-0.1c0-0.1,0-0.2,0-0.4c0-0.1-0.2-0.1-0.3-0.1V39.4
							L51.7,39.4z"/>
						<path class="st3" d="M61.3,39.9v0.9h-0.7v-2.4c0.4,0,0.8,0,1.2,0c0.3,0,0.5,0.2,0.6,0.5c0.1,0.3,0.1,0.6-0.3,0.9c0,0,0,0,0,0
							c0.1,0.4,0.3,0.7,0.4,1c-0.2,0-0.5,0-0.7,0c0,0-0.1-0.1-0.1-0.1c-0.1-0.2-0.2-0.4-0.3-0.7C61.4,40,61.3,39.9,61.3,39.9
							C61.3,39.9,61.3,39.9,61.3,39.9L61.3,39.9z M61.3,39.5c0.1-0.1,0.3-0.1,0.3-0.1c0.1-0.1,0.1-0.3,0-0.3
							c-0.1-0.1-0.2-0.1-0.3-0.1V39.5z"/>
						<path class="st3" d="M56,39.8h-0.4v0.9h-0.7v-2.4h0.7v0.9H56v-0.9h0.7v2.4H56V39.8L56,39.8z"/>
						<path class="st3" d="M58.9,38.4h1.3v0.5h-0.6v0.4h0.5v0.4h-0.5v0.5h0.7v0.5h-1.4L58.9,38.4L58.9,38.4z"/>
						<path class="st3" d="M54.5,38.4v0.5h-0.6v0.4h0.5v0.4h-0.5v0.5h0.7v0.5h-1.4v-2.4L54.5,38.4L54.5,38.4z"/>
						<path class="st3" d="M57.9,39.8v0.5h0.7v0.5h-1.4v-2.4h1.3v0.5h-0.6v0.4h0.5v0.5H57.9z"/>
						<path class="st3" d="M59.2,36c-0.5,0-1.1,0-1.6,0c-0.1-0.2-0.2-0.4-0.4-0.6c0.5-0.2,1-0.5,1.5-0.7c0.1-0.1,0.3-0.1,0.5-0.2
							C59.2,35,59.2,35.5,59.2,36L59.2,36z"/>
						<path class="st3" d="M45.4,40.8v-2.4H46v2.4H45.4z"/>
						<path class="st3" d="M59.8,35.9v-1.6h0.5v1.6C60.1,35.9,59.9,35.9,59.8,35.9z"/>
						<path class="st3" d="M47.2,39.5C47.2,39.5,47.2,39.5,47.2,39.5C47.2,39.5,47.2,39.5,47.2,39.5C47.2,39.5,47.2,39.5,47.2,39.5
							L47.2,39.5z"/>
						<path class="st3" d="M60.8,36v-0.7c0.2,0,0.5-0.1,0.6,0.1c0.1,0.1,0.1,0.3,0,0.4C61.3,36,61.1,35.9,60.8,36L60.8,36z"/>
						<path class="st3" d="M60.8,35v-0.6c0.2,0,0.5-0.1,0.6,0.1c0.1,0.1,0.1,0.3,0,0.3C61.3,35,61.1,34.9,60.8,35L60.8,35z"/>
					</g>
				</g>
			</g>
		</g>
	</g>
</g>
</svg>
