<svg width="103" height="18" viewBox="0 0 103 18" fill="none" xmlns="http://www.w3.org/2000/svg">
<path d="M0.564 11.296V9.976L4.488 4.36H6.444V9.832H7.5V11.296H6.444V13H4.764V11.296H0.564ZM4.872 6.16L2.412 9.832H4.872V6.16ZM9.50559 13.084C9.20159 13.084 8.94959 12.992 8.74959 12.808C8.55759 12.616 8.46159 12.38 8.46159 12.1C8.46159 11.82 8.55759 11.588 8.74959 11.404C8.94959 11.212 9.20159 11.116 9.50559 11.116C9.80159 11.116 10.0456 11.212 10.2376 11.404C10.4296 11.588 10.5256 11.82 10.5256 12.1C10.5256 12.38 10.4296 12.616 10.2376 12.808C10.0456 12.992 9.80159 13.084 9.50559 13.084ZM11.7108 6.556C11.7508 5.756 12.0308 5.14 12.5508 4.708C13.0788 4.268 13.7708 4.048 14.6268 4.048C15.2108 4.048 15.7108 4.152 16.1268 4.36C16.5428 4.56 16.8548 4.836 17.0628 5.188C17.2788 5.532 17.3868 5.924 17.3868 6.364C17.3868 6.868 17.2548 7.296 16.9908 7.648C16.7348 7.992 16.4268 8.224 16.0668 8.344V8.392C16.5308 8.536 16.8908 8.792 17.1468 9.16C17.4108 9.528 17.5428 10 17.5428 10.576C17.5428 11.056 17.4308 11.484 17.2068 11.86C16.9908 12.236 16.6668 12.532 16.2348 12.748C15.8108 12.956 15.2988 13.06 14.6988 13.06C13.7948 13.06 13.0588 12.832 12.4908 12.376C11.9228 11.92 11.6228 11.248 11.5908 10.36H13.2228C13.2388 10.752 13.3708 11.068 13.6188 11.308C13.8748 11.54 14.2228 11.656 14.6628 11.656C15.0708 11.656 15.3828 11.544 15.5988 11.32C15.8228 11.088 15.9348 10.792 15.9348 10.432C15.9348 9.952 15.7828 9.608 15.4788 9.4C15.1748 9.192 14.7028 9.088 14.0628 9.088H13.7148V7.708H14.0628C15.1988 7.708 15.7668 7.328 15.7668 6.568C15.7668 6.224 15.6628 5.956 15.4548 5.764C15.2548 5.572 14.9628 5.476 14.5788 5.476C14.2028 5.476 13.9108 5.58 13.7028 5.788C13.5028 5.988 13.3868 6.244 13.3548 6.556H11.7108Z" fill="#FC5446"/>
<g clip-path="url(#clip0_1780_29548)">
<path d="M31.1116 12.6872L34.6203 14.8047C34.8782 14.9607 35.1971 14.73 35.1293 14.4382L34.1995 10.4476L37.2942 7.76685C37.5182 7.57004 37.4028 7.19677 37.0974 7.16962L33.0186 6.8235L31.4237 3.06367C31.3084 2.78542 30.9147 2.78542 30.7994 3.06367L29.2045 6.8235L25.1257 7.16962C24.8271 7.19677 24.7049 7.57004 24.9357 7.76685L28.0304 10.4476L27.1006 14.4382C27.0327 14.73 27.3517 14.9607 27.6096 14.8047L31.1116 12.6872Z" fill="#FC5446"/>
</g>
<g clip-path="url(#clip1_1780_29548)">
<path d="M47.1116 12.6872L50.6203 14.8047C50.8782 14.9607 51.1971 14.73 51.1293 14.4382L50.1995 10.4476L53.2942 7.76685C53.5182 7.57004 53.4028 7.19677 53.0974 7.16962L49.0186 6.8235L47.4237 3.06367C47.3084 2.78542 46.9147 2.78542 46.7994 3.06367L45.2045 6.8235L41.1257 7.16962C40.8271 7.19677 40.7049 7.57004 40.9357 7.76685L44.0304 10.4476L43.1006 14.4382C43.0327 14.73 43.3517 14.9607 43.6096 14.8047L47.1116 12.6872Z" fill="#FC5446"/>
</g>
<g clip-path="url(#clip2_1780_29548)">
<path d="M63.1116 12.6872L66.6203 14.8047C66.8782 14.9607 67.1971 14.73 67.1293 14.4382L66.1995 10.4476L69.2942 7.76685C69.5182 7.57004 69.4028 7.19677 69.0974 7.16962L65.0186 6.8235L63.4237 3.06367C63.3084 2.78542 62.9147 2.78542 62.7994 3.06367L61.2045 6.8235L57.1257 7.16962C56.8271 7.19677 56.7049 7.57004 56.9357 7.76685L60.0304 10.4476L59.1006 14.4382C59.0327 14.73 59.3517 14.9607 59.6096 14.8047L63.1116 12.6872Z" fill="#FC5446"/>
</g>
<g clip-path="url(#clip3_1780_29548)">
<path d="M79.1116 12.6872L82.6203 14.8047C82.8782 14.9607 83.1971 14.73 83.1293 14.4382L82.1995 10.4476L85.2942 7.76685C85.5182 7.57004 85.4028 7.19677 85.0974 7.16962L81.0186 6.8235L79.4237 3.06367C79.3084 2.78542 78.9147 2.78542 78.7994 3.06367L77.2045 6.8235L73.1257 7.16962C72.8271 7.19677 72.7049 7.57004 72.9357 7.76685L76.0304 10.4476L75.1006 14.4382C75.0327 14.73 75.3517 14.9607 75.6096 14.8047L79.1116 12.6872Z" fill="#FC5446"/>
</g>
<g clip-path="url(#clip4_1780_29548)">
<path opacity="0.2" d="M95.1116 12.6872L98.6203 14.8047C98.8782 14.9607 99.1971 14.73 99.1293 14.4382L98.1995 10.4476L101.294 7.76685C101.518 7.57004 101.403 7.19677 101.097 7.16962L97.0186 6.8235L95.4237 3.06367C95.3084 2.78542 94.9147 2.78542 94.7994 3.06367L93.2045 6.8235L89.1257 7.16962C88.8271 7.19677 88.7049 7.57004 88.9357 7.76685L92.0304 10.4476L91.1006 14.4382C91.0327 14.73 91.3517 14.9607 91.6096 14.8047L95.1116 12.6872Z" fill="#FC5446"/>
<path d="M95.1116 2.86057V12.6872L91.6096 14.8046C91.3517 14.9607 91.0327 14.73 91.1006 14.4381L92.0304 10.4476L88.9357 7.76682C88.7049 7.57 88.8271 7.19673 89.1257 7.16959L93.2045 6.82347L94.7994 3.06364C94.9147 2.78538 95.1116 2.86057 95.1116 2.86057Z" fill="#FC5446"/>
</g>
<defs>
<clipPath id="clip0_1780_29548">
<rect width="16" height="16" fill="white" transform="translate(23 1)"/>
</clipPath>
<clipPath id="clip1_1780_29548">
<rect width="16" height="16" fill="white" transform="translate(39 1)"/>
</clipPath>
<clipPath id="clip2_1780_29548">
<rect width="16" height="16" fill="white" transform="translate(55 1)"/>
</clipPath>
<clipPath id="clip3_1780_29548">
<rect width="16" height="16" fill="white" transform="translate(71 1)"/>
</clipPath>
<clipPath id="clip4_1780_29548">
<rect width="16" height="16" fill="white" transform="translate(87 1)"/>
</clipPath>
</defs>
</svg>
