<svg width="92" height="28" viewBox="0 0 92 28" fill="none" xmlns="http://www.w3.org/2000/svg">
<path d="M86.2126 6.59766C84.7803 6.59766 82.7267 7.46048 82.1227 9.37224V6.88527H78.4297V21.1304L82.1227 21.1473V13.7033C82.1227 11.1317 83.6758 10.3535 85.1254 10.3535C86.5233 10.3535 88.1282 11.3517 88.1282 13.5679V21.1134H91.8384V13.3649C91.873 9.11846 89.9919 6.59766 86.2126 6.59766Z" fill="#FC5446"/>
<path d="M69.3187 6.63184C65.1597 6.63184 61.7773 9.9478 61.7773 14.0251C61.7773 18.1024 65.1597 21.4183 69.3187 21.4183C73.4777 21.4183 76.8601 18.1024 76.8601 14.0251C76.8601 9.9478 73.4777 6.63184 69.3187 6.63184ZM69.3187 17.7809C67.1961 17.7809 65.4704 16.0891 65.4704 14.0082C65.4704 11.9272 67.1961 10.2354 69.3187 10.2354C71.4413 10.2354 73.167 11.9272 73.167 14.0082C73.167 16.0891 71.4413 17.7809 69.3187 17.7809Z" fill="#FC5446"/>
<path d="M54.0811 13.9744V0H50.3881V7.69776C49.2663 7.03796 47.9548 6.63192 46.557 6.63192C42.398 6.63192 39.0156 9.94788 39.0156 14.0252C39.0156 18.1024 42.398 21.4184 46.557 21.4184C47.9548 21.4184 49.2663 21.0124 50.3881 20.3526V21.1646H54.0811V14.059C54.0811 14.0421 54.0811 14.0252 54.0811 14.0252C54.0811 14.0252 54.0811 13.9913 54.0811 13.9744ZM46.557 17.781C44.4344 17.781 42.7259 16.0892 42.7259 14.0252C42.7259 11.9611 44.4516 10.2693 46.557 10.2693C48.6624 10.2693 50.3708 11.9273 50.3881 13.9913V14.0759C50.3708 16.123 48.6624 17.781 46.557 17.781Z" fill="#FC5446"/>
<path d="M27.5908 14.617C27.5908 19.2357 21.568 19.2526 21.568 14.617V6.90234H17.875V16.0551C17.875 16.7656 17.875 18.9481 20.2392 20.3692C21.3609 21.0121 23.0349 21.4012 24.588 21.4012C26.1412 21.4012 27.7978 20.9952 28.9713 20.3354C31.2838 18.9481 31.2838 16.7656 31.2838 16.0382V6.90234H27.5908V14.617Z" fill="#FC5446"/>
<path d="M37.4274 6.90234H33.7344V21.1644H37.4274V6.90234Z" fill="#FC5446"/>
<path d="M60.2243 6.90234H56.5312V21.1644H60.2243V6.90234Z" fill="#FC5446"/>
<path d="M35.5809 0C34.5627 0 33.7344 0.812072 33.7344 1.81024C33.7344 2.80842 34.5627 3.62049 35.5809 3.62049C36.5991 3.62049 37.4274 2.80842 37.4274 1.81024C37.4274 0.812072 36.5991 0 35.5809 0Z" fill="#FC5446"/>
<path d="M58.4989 0C57.4807 0 56.6523 0.812072 56.6523 1.81024C56.6523 2.80842 57.4807 3.62049 58.4989 3.62049C59.517 3.62049 60.3454 2.80842 60.3454 1.81024C60.3454 0.812072 59.517 0 58.4989 0Z" fill="#FC5446"/>
<path d="M14.8934 19.1963L11.0451 22.1062C9.76806 25.1346 5.2812 25.1176 4.00418 22.1062L0.155838 19.1963C-0.810561 23.6796 2.84795 28.0445 7.52463 27.9937C12.2013 28.0445 15.8426 23.6796 14.8934 19.1963Z" fill="#FC5446"/>
<path fill-rule="evenodd" clip-rule="evenodd" d="M15.0488 6.8969H15.0321H11.3391V7.6413C6.47258 4.73137 -0.0678625 8.36878 0.0184231 13.9856C0.397712 23.8225 14.8488 23.68 15.0488 13.8619V6.8969ZM3.69419 13.9856C3.69419 16.0665 5.4199 17.7414 7.52527 17.7414C9.63064 17.7414 11.3563 16.0496 11.3563 13.9856C11.1665 9.02859 3.86676 9.01167 3.69419 13.9856Z" fill="#FC5446"/>
</svg>
