<svg width="40" height="40" viewBox="0 0 40 40" fill="none" xmlns="http://www.w3.org/2000/svg">
<path fill-rule="evenodd" clip-rule="evenodd" d="M2.95639 0C1.32404 0 0 1.28371 0 2.86539V37.1357C0 38.7173 1.32404 40 2.95639 40H37.0436C38.6765 40 40 38.7173 40 37.1351V2.86539C40 1.28371 38.6765 0 37.0436 0H2.95639ZM12.1274 15.5194V33.696H6.08584V15.5194H12.1274ZM12.5255 9.89806C12.5255 11.6423 11.2141 13.0382 9.1077 13.0382H9.10717H9.0681C7.04033 13.0382 5.72949 11.6423 5.72949 9.89806C5.72949 8.11419 7.07993 6.75742 9.14782 6.75742C11.2141 6.75742 12.4859 8.11419 12.5255 9.89806ZM21.5124 33.696H15.4713C15.4719 33.5886 15.5503 17.2196 15.4719 15.52H21.5129V18.0931C22.3159 16.8548 23.7532 15.0934 26.958 15.0934C30.9327 15.0934 33.9129 17.6913 33.9129 23.2742V33.696H27.8718V23.9731C27.8718 21.5294 26.9971 19.8627 24.8114 19.8627C23.1421 19.8627 22.148 20.9866 21.7114 22.0726C21.552 22.4601 21.5124 23.0039 21.5124 23.5466V33.696ZM15.4713 33.6965V33.696C15.4713 33.6963 15.4713 33.6965 15.4713 33.6965Z" fill="#FC5446"/>
</svg>
