<svg width="29" height="24" viewBox="0 0 29 24" fill="none" xmlns="http://www.w3.org/2000/svg">
<path d="M12.2247 0C12.5243 0.898876 12.6742 1.64794 12.6742 2.24719C12.6742 2.78652 12.5843 3.50562 12.4045 4.4045C8.38951 4.4045 6.38202 6.47191 6.38202 10.6067C6.38202 12.1049 7.16105 12.9438 8.7191 13.1236C10.9963 13.3034 12.1348 14.7715 12.1348 17.5281C12.1348 19.6255 11.6255 21.2435 10.6067 22.382C9.64794 23.4607 7.88015 24 5.30337 24C1.76779 24 0 21.603 0 16.809C0 12.015 0.958802 8.02996 2.87641 4.85393C4.79401 1.61798 7.91011 0 12.2247 0ZM28.4944 0C28.794 0.898876 28.9438 1.64794 28.9438 2.24719C28.9438 2.78652 28.8539 3.50562 28.6742 4.4045C24.6592 4.4045 22.6517 6.47191 22.6517 10.6067C22.6517 12.1049 23.4307 12.9438 24.9888 13.1236C27.2659 13.3034 28.4045 14.7715 28.4045 17.5281C28.4045 19.6255 27.8951 21.2435 26.8764 22.382C25.9176 23.4607 24.1498 24 21.573 24C18.0375 24 16.2697 21.603 16.2697 16.809C16.2697 12.015 17.2285 8.02996 19.1461 4.85393C21.0637 1.61798 24.1798 0 28.4944 0Z" fill="#FC5446"/>
</svg>
