<svg width="58" height="28" viewBox="0 0 58 28" fill="none" xmlns="http://www.w3.org/2000/svg">
<path d="M45.7569 16.4333C45.9776 16.6534 46.092 16.9502 46.092 17.2373C46.092 17.5819 45.9392 17.869 45.7569 18.0413C45.4227 18.3762 44.9533 18.7304 44.3512 18.9793C43.8442 19.1899 43.2893 19.3047 42.7056 19.3047H37.4537H32.2018C31.0152 19.3047 29.9437 18.8261 29.1593 18.0413C28.3844 17.2755 27.9062 16.2036 27.9062 15.0167V9.75243V4.49775C27.9062 3.3109 28.3844 2.2389 29.1688 1.45405C29.9437 0.678767 31.0152 0.200195 32.2018 0.200195H37.4537H42.7056C43.2893 0.200195 43.8442 0.315052 44.3512 0.525625C45.0493 0.812765 45.4891 1.16691 45.9201 1.6359C46.092 1.81776 46.2551 2.09533 46.2551 2.4399C46.2551 2.72705 46.1399 3.02375 45.9201 3.2439C45.7002 3.46404 45.4035 3.5789 45.1164 3.5789C44.8294 3.5789 44.5327 3.46404 44.3128 3.2439C44.0066 2.93761 43.8442 2.78447 43.4996 2.6409C43.2605 2.53561 42.9926 2.47819 42.7152 2.47819H37.4537H32.2018C31.6469 2.47819 31.1399 2.7079 30.7761 3.07161C30.413 3.43533 30.1828 3.94261 30.1828 4.49775V9.75243V15.0071C30.1828 15.5623 30.413 16.0696 30.7761 16.4333C31.1399 16.797 31.6469 17.0267 32.2018 17.0267H37.4537H42.7056C42.9831 17.0267 43.2509 16.9693 43.49 16.864C43.7099 16.7682 43.9394 16.6247 44.1409 16.4237C44.3608 16.2036 44.6575 16.0887 44.9445 16.0887C45.2404 16.1078 45.537 16.2131 45.7569 16.4333ZM42.6768 15.0837C42.6384 14.251 42.0739 12.978 40.6682 12.8057H35.6553L41.4334 7.27346C41.6725 7.04375 42.2274 6.24932 41.8348 5.40704C41.5197 4.72746 40.9928 4.43075 40.0844 4.43075H32.8903C32.919 5.38789 33.3972 6.52688 34.6598 6.72788H38.7739L32.6896 12.442C32.4409 12.6813 32.0387 13.4087 32.3545 14.1457C32.6416 14.8157 33.1294 15.0837 34.0385 15.0837H42.6768ZM47.0107 4.43075C45.8145 4.43075 44.7334 5.43575 44.7334 6.50775V15.0837C45.9296 15.0837 47.0107 14.0787 47.0107 13.0067V4.43075Z" fill="#FC5446"/>
<path fill-rule="evenodd" clip-rule="evenodd" d="M13.261 19.3047C18.5368 19.3047 22.8125 15.0278 22.8125 9.75244C22.8125 5.77704 20.3845 2.36871 16.9301 0.9303C15.3878 1.31454 14.1725 2.87057 14.1773 4.63038C14.1773 4.69025 14.1816 4.75361 14.1879 4.78272C16.83 5.47432 18.0286 7.18618 18.0364 9.5537C18.0428 11.9229 16.3022 14.5181 13.3594 14.5284V14.5284C10.9763 14.5371 8.49554 12.3526 8.48422 8.84335C8.47644 6.52373 9.64322 4.28975 11.1319 2.96477C12.586 1.67402 14.5771 0.843759 16.3821 0.836914C16.506 0.836914 16.6333 0.842757 16.7477 0.856536C15.6676 0.432839 14.4915 0.200195 13.261 0.200195C7.98516 0.200195 3.70801 4.47702 3.70801 9.75244C3.70801 15.0278 7.98516 19.3047 13.261 19.3047Z" fill="#FC5446"/>
<path d="M57.2002 25.0361H-6.7998V27.9018H57.2002V25.0361Z" fill="#FC5446"/>
</svg>
